<?xml version="1.0" encoding="utf-8"?>
<!-- Generator: Adobe Illustrator 26.0.3, SVG Export Plug-In . SVG Version: 6.00 Build 0)  -->
<svg version="1.1" id="Layer_1" xmlns="http://www.w3.org/2000/svg" xmlns:xlink="http://www.w3.org/1999/xlink" x="0px" y="0px"
	 viewBox="0 0 48 48" style="enable-background:new 0 0 48 48;" xml:space="preserve">
<path d="M37.8,34.5c0,2.1-0.7,3.8-2.2,5.3S32.3,42,30.2,42H15.8c-1.6,0-2.9-0.5-3.9-1.6s-1.6-2.4-1.6-3.9v-25c0-1.6,0.5-2.9,1.6-3.9
	S14.2,6,15.8,6h16.5c1.5,0,2.8,0.5,3.9,1.6s1.6,2.4,1.6,3.9V34.5z M15.8,39h14.5c1.3,0,2.3-0.4,3.2-1.3c0.9-0.9,1.3-1.9,1.3-3.2
	c0-1.3-0.4-2.3-1.3-3.2c-0.9-0.9-1.9-1.3-3.2-1.3h-9.5c-0.4,0-0.8,0.1-1.1,0.4s-0.4,0.6-0.4,1.1c0,0.4,0.1,0.8,0.4,1.1
	s0.6,0.4,1.1,0.4h9.5c0.5,0,0.8,0.2,1.1,0.5s0.4,0.7,0.4,1c0,0.4-0.1,0.7-0.4,1c-0.3,0.3-0.6,0.5-1.1,0.5h-9.5
	c-1.3,0-2.3-0.4-3.2-1.3c-0.9-0.9-1.3-1.9-1.3-3.2c0-1.3,0.4-2.3,1.3-3.2c0.9-0.9,1.9-1.3,3.2-1.3h9.5c0.7,0,1.4,0.1,2.1,0.3
	c0.8,0.2,1.5,0.6,2.4,1.2v-17c0-0.8-0.2-1.4-0.7-1.8C33.6,9.2,33,9,32.2,9H15.8c-0.6,0-1.2,0.2-1.7,0.7c-0.5,0.4-0.8,1.1-0.8,1.8v25
	c0,0.6,0.3,1.2,0.8,1.7S15.1,39,15.8,39z"/>
</svg>
