<?xml version="1.0" encoding="utf-8"?>
<!-- Generator: Adobe Illustrator 26.0.3, SVG Export Plug-In . SVG Version: 6.00 Build 0)  -->
<svg version="1.1" id="Layer_1" xmlns="http://www.w3.org/2000/svg" xmlns:xlink="http://www.w3.org/1999/xlink" x="0px" y="0px"
	 viewBox="0 0 48 48" style="enable-background:new 0 0 48 48;" xml:space="preserve">
<path d="M19.5,42v-6.5H4v-3h15.5c0.8,0,1.5,0.3,2.1,0.9s0.9,1.3,0.9,2.1V42H19.5z M25.5,42v-6.5c0-0.8,0.3-1.5,0.9-2.1
	s1.3-0.9,2.1-0.9H44v3H28.5V42H25.5z M11.5,29.5c-1.5,0-2.8-0.5-3.9-1.6S6,25.5,6,24v-9h36v9c0,1.5-0.5,2.8-1.6,3.9
	s-2.4,1.6-3.9,1.6H11.5z M11.5,26.5h25c0.7,0,1.3-0.2,1.8-0.8S39,24.7,39,24v-6H9v6c0,0.7,0.2,1.2,0.8,1.8S10.8,26.5,11.5,26.5z
	 M6,13v-3h12.5V7.5c0-0.4,0.1-0.8,0.4-1.1C19.2,6.1,19.6,6,20,6h8c0.4,0,0.8,0.1,1.1,0.4c0.3,0.3,0.4,0.6,0.4,1.1V10H42v3H6z"/>
</svg>
