<?xml version="1.0" encoding="utf-8"?>
<!-- Generator: Adobe Illustrator 26.0.3, SVG Export Plug-In . SVG Version: 6.00 Build 0)  -->
<svg version="1.1" id="Layer_1" xmlns="http://www.w3.org/2000/svg" xmlns:xlink="http://www.w3.org/1999/xlink" x="0px" y="0px"
	 viewBox="0 0 48 48" style="enable-background:new 0 0 48 48;" xml:space="preserve">
<path d="M4,19.5c0-0.8,0.3-1.5,0.9-2.1s1.3-0.9,2.1-0.9h19.1l6.6-4.5H41c0.8,0,1.5,0.3,2.1,0.9S44,14.2,44,15v18
	c0,0.8-0.3,1.5-0.9,2.1S41.8,36,41,36h-8.2l-6.6-4.5H7c-0.8,0-1.5-0.3-2.1-0.9S4,29.3,4,28.5V19.5z M16.3,24c0-0.7,0.2-1.3,0.8-1.8
	c0.5-0.5,1.1-0.7,1.8-0.8c0.7,0,1.3,0.3,1.8,0.8c0.5,0.5,0.8,1.1,0.8,1.8c0,0.7-0.2,1.3-0.8,1.8c-0.5,0.5-1.1,0.7-1.8,0.8
	c-0.7,0-1.3-0.3-1.8-0.8C16.5,25.3,16.3,24.7,16.3,24z M38.2,15v18H41V15H38.2z M35.2,33V15h-1.8l-6.6,4.5H7v9h19.9l6.6,4.5H35.2z"
	/>
</svg>
