<?xml version="1.0" encoding="utf-8"?>
<!-- Generator: Adobe Illustrator 26.0.3, SVG Export Plug-In . SVG Version: 6.00 Build 0)  -->
<svg version="1.1" id="Layer_1" xmlns="http://www.w3.org/2000/svg" xmlns:xlink="http://www.w3.org/1999/xlink" x="0px" y="0px"
	 viewBox="0 0 20 48" style="enable-background:new 0 0 20 48;" xml:space="preserve">
<path d="M7,44V30H3V17.4c0-0.8,0.3-1.5,0.9-2.1c0.6-0.6,1.3-0.9,2.1-0.9h8c0.8,0,1.5,0.3,2.1,0.9c0.6,0.6,0.9,1.3,0.9,2.1V30h-4v14
	H7z M10,11.3c-1,0-1.9-0.4-2.6-1.1C6.7,9.5,6.4,8.6,6.4,7.7s0.4-1.9,1.1-2.6S9,4,10,4s1.9,0.4,2.6,1.1c0.7,0.7,1.1,1.6,1.1,2.6
	s-0.4,1.9-1.1,2.6C11.9,10.9,11,11.3,10,11.3z"/>
</svg>
