<?xml version="1.0" encoding="utf-8"?>
<!-- Generator: Adobe Illustrator 26.0.3, SVG Export Plug-In . SVG Version: 6.00 Build 0)  -->
<svg version="1.1" id="Layer_1" xmlns="http://www.w3.org/2000/svg" xmlns:xlink="http://www.w3.org/1999/xlink" x="0px" y="0px"
	 viewBox="0 0 48 48" style="enable-background:new 0 0 48 48;" xml:space="preserve">
<path d="M46.91,35.16L35.93,11.35c0,0,0-0.01,0-0.01l-0.02-0.05c0,0-0.01-0.01-0.01-0.01c-0.03-0.07-0.07-0.14-0.12-0.21
	c0,0,0-0.01-0.01-0.01c-0.05-0.07-0.09-0.13-0.15-0.2c-0.01-0.01-0.02-0.02-0.03-0.03c-0.05-0.05-0.1-0.11-0.16-0.15
	c-0.01-0.01-0.01-0.01-0.02-0.02c-0.06-0.05-0.13-0.1-0.19-0.14c-0.01,0-0.02-0.01-0.02-0.01c-0.06-0.04-0.13-0.08-0.2-0.11
	c-0.01,0-0.02-0.01-0.03-0.01c-0.07-0.03-0.15-0.06-0.23-0.09c-0.01,0-0.01,0-0.02,0c-0.07-0.02-0.14-0.04-0.22-0.05
	c-0.02,0-0.04-0.01-0.05-0.01c-0.08-0.01-0.16-0.02-0.24-0.02h0H13.77c-0.72,0-1.38,0.42-1.68,1.08l-11,23.87
	c-0.26,0.57-0.22,1.24,0.12,1.77c0.34,0.53,0.93,0.85,1.56,0.85h11h9.45h0h22.01c0.63,0,1.22-0.32,1.56-0.85
	C47.13,36.4,47.18,35.73,46.91,35.16z M25.26,35.93l9.99-21.66l9.99,21.66H25.26z"/>
</svg>
