<?xml version="1.0" encoding="utf-8"?>
<!-- Generator: Adobe Illustrator 26.0.3, SVG Export Plug-In . SVG Version: 6.00 Build 0)  -->
<svg version="1.1" id="Layer_1" xmlns="http://www.w3.org/2000/svg" xmlns:xlink="http://www.w3.org/1999/xlink" x="0px" y="0px"
	 viewBox="0 0 48 48" style="enable-background:new 0 0 48 48;" xml:space="preserve">
<path d="M46.9,35.2l-11-23.8c0,0,0,0,0,0l0,0c0,0,0,0,0,0c0-0.1-0.1-0.1-0.1-0.2c0,0,0,0,0,0c0-0.1-0.1-0.1-0.1-0.2c0,0,0,0,0,0
	c0-0.1-0.1-0.1-0.2-0.2c0,0,0,0,0,0c-0.1-0.1-0.1-0.1-0.2-0.1c0,0,0,0,0,0c-0.1,0-0.1-0.1-0.2-0.1c0,0,0,0,0,0
	c-0.1,0-0.2-0.1-0.2-0.1c0,0,0,0,0,0c-0.1,0-0.1,0-0.2,0c0,0,0,0-0.1,0c-0.1,0-0.2,0-0.2,0h0H13.8c-0.7,0-1.4,0.4-1.7,1.1l-11,23.9
	c-0.3,0.6-0.2,1.2,0.1,1.8s0.9,0.9,1.6,0.9h11h9.4c0,0,0,0,0,0h22c0.6,0,1.2-0.3,1.6-0.9C47.1,36.4,47.2,35.7,46.9,35.2z M13.8,35.9
	h-11l11-23.9h18.4h2l-11,23.9h-1.8H13.8z"/>
</svg>
