<?xml version="1.0" encoding="utf-8"?>
<!-- Generator: Adobe Illustrator 26.0.3, SVG Export Plug-In . SVG Version: 6.00 Build 0)  -->
<svg version="1.1" id="Layer_1" xmlns="http://www.w3.org/2000/svg" xmlns:xlink="http://www.w3.org/1999/xlink" x="0px" y="0px"
	 viewBox="0 0 48 48" style="enable-background:new 0 0 48 48;" xml:space="preserve">
<path d="M4,42.5v-6.7c0-0.3,0-0.7,0.2-1c0.1-0.3,0.2-0.6,0.4-0.8l17.5-23.8L19.7,7c-0.1-0.2-0.2-0.3-0.2-0.5s0-0.4,0-0.6
	s0.1-0.4,0.2-0.5c0.1-0.2,0.2-0.3,0.4-0.4c0.3-0.3,0.7-0.4,1.1-0.3c0.4,0.1,0.7,0.3,1,0.6L24,7.8l1.9-2.6c0.3-0.3,0.6-0.5,1-0.6
	c0.4-0.1,0.8,0,1.1,0.3c0.3,0.3,0.5,0.6,0.6,1c0.1,0.4,0,0.8-0.3,1.1l-2.4,3.2L43.4,34c0.2,0.3,0.3,0.6,0.5,0.8
	c0.1,0.3,0.2,0.6,0.2,1v6.7c0,0.4-0.1,0.8-0.4,1.1c-0.3,0.3-0.6,0.4-1.1,0.4h-37c-0.4,0-0.8-0.1-1.1-0.4S4,42.9,4,42.5z M24,12.8
	l-17,23V41h7.2l8.5-12c0.3-0.4,0.7-0.6,1.2-0.6s0.9,0.2,1.2,0.6l8.6,12H41v-5.2L24,12.8z M18,41h12.1L24,32.5L18,41z M25.3,29
	l8.5,12L25.3,29c-0.4-0.4-0.8-0.6-1.2-0.6s-0.9,0.2-1.2,0.6l-8.5,12l8.5-12c0.3-0.4,0.7-0.6,1.2-0.6S25,28.6,25.3,29z"/>
</svg>
